<mxfile host="app.diagrams.net" agent="Mozilla/5.0 (Windows NT 10.0; Win64; x64) AppleWebKit/537.36 (KHTML, like Gecko) Chrome/137.0.0.0 Safari/537.36" version="27.1.6">
  <diagram name="第 1 页" id="5wzQUZLdJe-7u8PxrWQR">
    <mxGraphModel dx="1426" dy="785" grid="1" gridSize="10" guides="1" tooltips="1" connect="1" arrows="1" fold="1" page="1" pageScale="1" pageWidth="827" pageHeight="1169" math="0" shadow="0">
      <root>
        <mxCell id="0" />
        <mxCell id="1" parent="0" />
        <mxCell id="IBYEb5yRVhsRy5LMMLNx-3" style="edgeStyle=orthogonalEdgeStyle;rounded=0;orthogonalLoop=1;jettySize=auto;html=1;entryX=0.5;entryY=0;entryDx=0;entryDy=0;" parent="1" source="IBYEb5yRVhsRy5LMMLNx-1" target="IBYEb5yRVhsRy5LMMLNx-2" edge="1">
          <mxGeometry relative="1" as="geometry" />
        </mxCell>
        <mxCell id="IBYEb5yRVhsRy5LMMLNx-1" value="" style="ellipse;whiteSpace=wrap;html=1;" parent="1" vertex="1">
          <mxGeometry x="280" y="60" width="120" height="80" as="geometry" />
        </mxCell>
        <mxCell id="IBYEb5yRVhsRy5LMMLNx-5" style="edgeStyle=orthogonalEdgeStyle;rounded=0;orthogonalLoop=1;jettySize=auto;html=1;exitX=0.5;exitY=1;exitDx=0;exitDy=0;entryX=0.5;entryY=0;entryDx=0;entryDy=0;" parent="1" source="IBYEb5yRVhsRy5LMMLNx-2" target="IBYEb5yRVhsRy5LMMLNx-4" edge="1">
          <mxGeometry relative="1" as="geometry" />
        </mxCell>
        <mxCell id="IBYEb5yRVhsRy5LMMLNx-2" value="" style="rounded=1;whiteSpace=wrap;html=1;" parent="1" vertex="1">
          <mxGeometry x="280" y="180" width="120" height="60" as="geometry" />
        </mxCell>
        <mxCell id="IBYEb5yRVhsRy5LMMLNx-4" value="" style="shape=process;whiteSpace=wrap;html=1;backgroundOutline=1;" parent="1" vertex="1">
          <mxGeometry x="280" y="280" width="120" height="60" as="geometry" />
        </mxCell>
        <mxCell id="DfGtRf56760_pPb6WfjM-1" value="" style="rounded=0;orthogonalLoop=1;jettySize=auto;html=1;entryX=0;entryY=0.5;entryDx=0;entryDy=0;" edge="1" parent="1" source="xleU26F7WajVe0TPFSa0-1" target="xleU26F7WajVe0TPFSa0-2">
          <mxGeometry relative="1" as="geometry" />
        </mxCell>
        <mxCell id="DfGtRf56760_pPb6WfjM-3" style="rounded=0;orthogonalLoop=1;jettySize=auto;html=1;entryX=0;entryY=0.5;entryDx=0;entryDy=0;" edge="1" parent="1" source="xleU26F7WajVe0TPFSa0-1" target="DfGtRf56760_pPb6WfjM-2">
          <mxGeometry relative="1" as="geometry" />
        </mxCell>
        <mxCell id="xleU26F7WajVe0TPFSa0-1" value="Actor" style="shape=umlActor;verticalLabelPosition=bottom;verticalAlign=top;html=1;strokeColor=#FF5522;" parent="1" vertex="1">
          <mxGeometry x="280" y="440" width="30" height="60" as="geometry" />
        </mxCell>
        <mxCell id="xleU26F7WajVe0TPFSa0-2" value="返回报告" style="ellipse;whiteSpace=wrap;html=1;shadow=0;fillColor=#FFF71D;" parent="1" vertex="1">
          <mxGeometry x="390" y="370" width="120" height="60" as="geometry" />
        </mxCell>
        <mxCell id="xleU26F7WajVe0TPFSa0-7" style="rounded=0;orthogonalLoop=1;jettySize=auto;html=1;" parent="1" source="xleU26F7WajVe0TPFSa0-5" target="xleU26F7WajVe0TPFSa0-6" edge="1">
          <mxGeometry relative="1" as="geometry" />
        </mxCell>
        <mxCell id="xleU26F7WajVe0TPFSa0-5" value="Attribute" style="ellipse;whiteSpace=wrap;html=1;align=center;" parent="1" vertex="1">
          <mxGeometry x="150" y="670" width="100" height="40" as="geometry" />
        </mxCell>
        <mxCell id="xleU26F7WajVe0TPFSa0-6" value="Attribute" style="ellipse;whiteSpace=wrap;html=1;align=center;fontStyle=4;" parent="1" vertex="1">
          <mxGeometry x="350" y="620" width="100" height="40" as="geometry" />
        </mxCell>
        <mxCell id="DfGtRf56760_pPb6WfjM-2" value="开单" style="ellipse;whiteSpace=wrap;html=1;" vertex="1" parent="1">
          <mxGeometry x="400" y="490" width="120" height="60" as="geometry" />
        </mxCell>
        <mxCell id="DfGtRf56760_pPb6WfjM-4" value="Text" style="text;html=1;align=center;verticalAlign=middle;resizable=0;points=[];autosize=1;strokeColor=none;fillColor=none;" vertex="1" parent="1">
          <mxGeometry x="414" y="440" width="50" height="30" as="geometry" />
        </mxCell>
      </root>
    </mxGraphModel>
  </diagram>
</mxfile>
